Coordinates
version=1
nRows=17
nColumns=40
inDegrees=yes

Units are S.I. units (second, meters, Newtons, ...)
If the header above contains a line with 'inDegrees', this indicates whether rotational values are in degrees (yes) or radians (no).

endheader
time	pelvis_tilt	pelvis_list	pelvis_rotation	pelvis_tx	pelvis_ty	pelvis_tz	hip_flexion_r	hip_adduction_r	hip_rotation_r	knee_angle_r	knee_angle_r_beta	ankle_angle_r	subtalar_angle_r	mtp_angle_r	hip_flexion_l	hip_adduction_l	hip_rotation_l	knee_angle_l	knee_angle_l_beta	ankle_angle_l	subtalar_angle_l	mtp_angle_l	lumbar_extension	lumbar_bending	lumbar_rotation	arm_flex_r	arm_add_r	arm_rot_r	elbow_flex_r	pro_sup_r	wrist_flex_r	wrist_dev_r	arm_flex_l	arm_add_l	arm_rot_l	elbow_flex_l	pro_sup_l	wrist_flex_l	wrist_dev_l
      7.32500000	     88.23585161	     38.74446420	     88.22560473	      0.40615252	      0.59744091	      0.76970714	     85.10260427	     -9.43297646	     -3.09398395	     27.65541403	      0.48267803	     -5.21026190	      0.00000000	      0.00000000	     83.70468568	    -15.85646394	     -9.83296507	     28.24631345	      0.49299117	     -2.48064796	      0.00000000	      0.00000000	    -23.71974617	     -9.23253263	      2.69989504	     55.56065377	    -17.13445511	     69.55587665	     18.20586596	     63.56665015	      0.00000000	      0.00000000	     52.99267572	    -11.94985725	     23.60383871	     21.59449956	     58.89560550	      0.00000000	      0.00000000
      7.33000000	     88.22271751	     38.83214147	     88.16956117	      0.40588076	      0.59790982	      0.77055701	     84.80354754	     -9.32321664	     -3.08730639	     27.29070641	      0.47631268	     -5.45494008	      0.00000000	      0.00000000	     83.41497648	    -15.92309503	     -9.98331805	     27.93369343	      0.48753492	     -2.70568490	      0.00000000	      0.00000000	    -23.64609013	     -9.31620492	      2.72020390	     56.35655513	    -17.47595625	     74.20037487	     18.34098979	     66.37273127	      0.00000000	      0.00000000	     52.86313598	    -12.34162614	     24.37408062	     21.74516286	     60.71596890	      0.00000000	      0.00000000
      7.33500000	     88.41800433	     38.89021388	     88.18225837	      0.40568563	      0.59788693	      0.77121243	     84.62620507	     -9.46057672	     -3.42942100	     27.21079207	      0.47491791	     -5.57070701	      0.00000000	      0.00000000	     83.22326158	    -15.75701781	     -9.71351499	     27.59794076	      0.48167493	     -2.93097111	      0.00000000	      0.00000000	    -23.55498765	     -9.11858855	      2.74070055	     55.40370904	    -17.37663266	     70.49230946	     18.60924826	     64.15427155	      0.00000000	      0.00000000	     52.64768942	    -12.16832637	     23.93671959	     21.90659284	     59.13137637	      0.00000000	      0.00000000
      7.34000000	     88.23660186	     39.06220491	     88.13707231	      0.40526426	      0.59845937	      0.77206470	     84.33137230	     -9.28578790	     -3.23243676	     26.96648977	      0.47065403	     -5.62811638	      0.00000000	      0.00000000	     82.86560587	    -15.92851227	    -10.08505415	     27.46188551	      0.47930032	     -2.94132056	      0.00000000	      0.00000000	    -23.55814310	     -9.37709039	      2.84810020	     55.95148756	    -17.50037990	     73.74245938	     18.37830010	     66.89041683	      0.00000000	      0.00000000	     52.68176072	    -12.49211203	     25.08310889	     21.75284040	     61.15403521	      0.00000000	      0.00000000
      7.34500000	     88.20258585	     39.20495276	     88.14811803	      0.40490844	      0.59883845	      0.77279612	     84.09878982	     -9.26966836	     -3.33276054	     26.85321590	      0.46867703	     -5.71580311	      0.00000000	      0.00000000	     82.58018624	    -15.94528721	    -10.18460924	     27.26703993	      0.47589962	     -3.12761238	      0.00000000	      0.00000000	    -23.53842116	     -9.44295290	      2.88186835	     55.75881799	    -17.46083722	     73.48366237	     18.36018754	     67.63548369	      0.00000000	      0.00000000	     52.68609316	    -12.68356211	     25.51381519	     21.58608250	     64.31293740	      0.00000000	      0.00000000
      7.35000000	     88.31011861	     39.38813357	     88.08066574	      0.40449966	      0.59902489	      0.77360393	     83.78025455	     -9.26112544	     -3.52845746	     26.71089195	      0.46619301	     -5.82255633	      0.00000000	      0.00000000	     82.27534719	    -15.93394805	    -10.09104560	     27.04528271	      0.47202923	     -3.22650303	      0.00000000	      0.00000000	    -23.56646071	     -9.38307980	      2.94334784	     54.80929294	    -17.18867613	     69.61890788	     18.43862159	     65.00264773	      0.00000000	      0.00000000	     52.53764534	    -12.48765388	     25.06297493	     21.55985778	     62.03917294	      0.00000000	      0.00000000
      7.35500000	     88.23202239	     39.63316538	     88.06372916	      0.40398310	      0.59943665	      0.77444361	     83.44979240	     -9.19650914	     -3.52359593	     26.60423249	      0.46433145	     -5.85982016	      0.00000000	      0.00000000	     81.87872649	    -16.00249231	    -10.26949278	     26.90257540	      0.46953852	     -3.27665183	      0.00000000	      0.00000000	    -23.65278215	     -9.51061936	      3.00562969	     55.43887958	    -17.46349664	     73.41406325	     18.43495117	     67.18065267	      0.00000000	      0.00000000	     52.47022451	    -12.76365204	     25.84173623	     21.67579445	     63.09468630	      0.00000000	      0.00000000
      7.36000000	     88.22066088	     39.74477039	     88.02263318	      0.40370740	      0.59984053	      0.77501233	     83.25141973	     -9.11833252	     -3.51351479	     26.45630066	      0.46174955	     -6.08974053	      0.00000000	      0.00000000	     81.66724793	    -16.05036041	    -10.26357510	     26.76089807	      0.46706578	     -3.44126444	      0.00000000	      0.00000000	    -23.57772427	     -9.57089051	      3.06334288	     54.34469851	    -17.17878548	     69.07192042	     18.71473549	     64.37946996	      0.00000000	      0.00000000	     52.23369646	    -12.61329680	     25.25919318	     21.75358329	     60.82652820	      0.00000000	      0.00000000
      7.36500000	     88.21590391	     40.11435599	     88.05411493	      0.40301166	      0.59998584	      0.77591471	     82.83445832	     -9.17945545	     -3.68310965	     26.49859544	      0.46248774	     -5.90548339	      0.00000000	      0.00000000	     81.18755023	    -16.03533531	    -10.37387248	     26.68608103	      0.46575998	     -3.34990475	      0.00000000	      0.00000000	    -23.80973091	     -9.58581553	      3.09204157	     55.11790635	    -17.44973529	     73.39354949	     18.48527470	     66.88367931	      0.00000000	      0.00000000	     52.23378694	    -12.83372159	     26.20316691	     21.82403394	     62.00911912	      0.00000000	      0.00000000
      7.37000000	     88.19933539	     40.43299903	     88.04770258	      0.40241941	      0.60018931	      0.77674136	     82.44926190	     -9.16727438	     -3.75640147	     26.46297204	      0.46186599	     -5.86119090	      0.00000000	      0.00000000	     80.76097463	    -16.05256122	    -10.45248123	     26.59895460	      0.46423934	     -3.35754009	      0.00000000	      0.00000000	    -23.97608180	     -9.62487626	      3.13227248	     54.93770360	    -17.42621894	     73.14453093	     18.48139262	     66.99952146	      0.00000000	      0.00000000	     52.17612829	    -12.91702510	     26.54333602	     21.78346547	     62.55239570	      0.00000000	      0.00000000
      7.37500000	     88.16747797	     40.71644445	     88.05062820	      0.40191949	      0.60052793	      0.77744480	     82.10941087	     -9.13684920	     -3.74735477	     26.42079666	      0.46112989	     -5.86758478	      0.00000000	      0.00000000	     80.37702026	    -16.07567193	    -10.51896545	     26.51908607	      0.46284537	     -3.36177725	      0.00000000	      0.00000000	    -24.09113903	     -9.68409039	      3.16267380	     54.86708407	    -17.39538058	     73.35421922	     18.43817184	     67.78640195	      0.00000000	      0.00000000	     52.14380036	    -13.12309425	     26.94591962	     21.72024128	     65.41512106	      0.00000000	      0.00000000
      7.38000000	     88.19929512	     41.05678381	     88.06956227	      0.40136229	      0.60065119	      0.77817987	     81.74061930	     -9.18586784	     -3.87274166	     26.47346560	      0.46204914	     -5.79259263	      0.00000000	      0.00000000	     79.97127104	    -16.04494525	    -10.51684988	     26.47708073	      0.46211224	     -3.35110929	      0.00000000	      0.00000000	    -24.27466092	     -9.65993650	      3.17094635	     54.68985264	    -17.40060335	     73.12427605	     18.45900618	     67.54901657	      0.00000000	      0.00000000	     52.04482677	    -13.19202232	     27.21220020	     21.77469952	     65.25830642	      0.00000000	      0.00000000
      7.38500000	     88.43524041	     41.29467341	     88.11933121	      0.40091826	      0.60042823	      0.77875632	     81.45219608	     -9.39135789	     -4.26538775	     26.56566164	      0.46365826	     -5.78035414	      0.00000000	      0.00000000	     79.67295462	    -15.82079576	    -10.14011454	     26.27145204	      0.45852334	     -3.41489253	      0.00000000	      0.00000000	    -24.35378828	     -9.39004169	      3.09564174	     53.78384958	    -17.31697508	     69.63175501	     18.80652268	     65.21036738	      0.00000000	      0.00000000	     51.75500723	    -13.05030358	     26.66035903	     22.00253112	     63.13106980	      0.00000000	      0.00000000
      7.39000000	     88.27285145	     41.63501102	     88.10777944	      0.40038268	      0.60088475	      0.77957315	     81.04715353	     -9.24892936	     -3.99909028	     26.42908416	      0.46127454	     -5.80043427	      0.00000000	      0.00000000	     79.19767013	    -15.94383796	    -10.44262123	     26.22561108	      0.45772326	     -3.38629476	      0.00000000	      0.00000000	    -24.51596138	     -9.58952242	      3.19685561	     53.01524316	    -16.95513380	     66.46259493	     18.78286451	     63.07505029	      0.00000000	      0.00000000	     51.68221418	    -12.82397325	     26.19003102	     21.86286660	     61.01821820	      0.00000000	      0.00000000
      7.39500000	     88.36383000	     42.08350759	     88.11198974	      0.39964652	      0.60102058	      0.78044022	     80.55369393	     -9.31501252	     -4.19461059	     26.51743330	      0.46281652	     -5.62228128	      0.00000000	      0.00000000	     78.66967728	    -15.90664098	    -10.43403985	     26.16374197	      0.45664344	     -3.31725315	      0.00000000	      0.00000000	    -24.81349731	     -9.50285296	      3.25223727	     52.48240841	    -16.78326020	     64.35881709	     18.78541990	     61.59749574	      0.00000000	      0.00000000	     51.60043404	    -12.61683350	     25.84794887	     21.85985584	     59.39800692	      0.00000000	      0.00000000
      7.40000000	     88.24151312	     42.48707793	     88.12287736	      0.39891681	      0.60148589	      0.78121395	     80.13108858	     -9.25430792	     -4.12752652	     26.53682823	      0.46315503	     -5.54510949	      0.00000000	      0.00000000	     78.17413289	    -16.03155831	    -10.82512902	     26.22317839	      0.45768080	     -3.20647164	      0.00000000	      0.00000000	    -25.02684175	     -9.65542555	      3.21302397	     54.26149837	    -17.36948351	     73.73273229	     18.48149361	     67.36270275	      0.00000000	      0.00000000	     51.62420863	    -13.32047826	     27.71942180	     21.86522344	     63.38451955	      0.00000000	      0.00000000
      7.40500000	     88.45648665	     42.63766706	     88.19245629	      0.39864890	      0.60131916	      0.78155126	     79.95628490	     -9.44370666	     -4.40029560	     26.64727916	      0.46508276	     -5.50194167	      0.00000000	      0.00000000	     77.99111404	    -15.80722370	    -10.45524597	     26.04650150	      0.45459721	     -3.29447778	      0.00000000	      0.00000000	    -24.97720594	     -9.39628085	      3.12710395	     53.29307141	    -17.22264798	     69.93239913	     18.78649249	     64.89324676	      0.00000000	      0.00000000	     51.27920825	    -13.18578659	     27.11142884	     22.12001203	     61.39355339	      0.00000000	      0.00000000
